<?xml version="1.0" encoding="UTF-8" standalone="no"?>
<!-- Created with Inkscape (http://www.inkscape.org/) -->

<svg
   xmlns:dc="http://purl.org/dc/elements/1.1/"
   xmlns:cc="http://creativecommons.org/ns#"
   xmlns:rdf="http://www.w3.org/1999/02/22-rdf-syntax-ns#"
   xmlns:svg="http://www.w3.org/2000/svg"
   xmlns="http://www.w3.org/2000/svg"
   version="1.1"
   width="1052.3625"
   height="744.09375"
   id="svg2"
   xml:space="preserve"><metadata
     id="metadata8"><rdf:RDF><cc:Work
         rdf:about=""><dc:format>image/svg+xml</dc:format><dc:type
           rdf:resource="http://purl.org/dc/dcmitype/StillImage" /><dc:title></dc:title></cc:Work></rdf:RDF></metadata><defs
     id="defs6"><clipPath
       id="clipPath16"><path
         d="m 0,595.275 841.89,0 L 841.89,0 0,0 0,595.275 Z"
         id="path18" /></clipPath></defs><g
     transform="matrix(1.25,0,0,-1.25,0,744.09375)"
     id="g10"><g
       id="g3643"><g
         transform="translate(526.73679,333.29995)"
         id="g108"><path
           d="M 0,0 -5.191,7.178 C -3.232,4.518 -1.515,2.2 0,0 M 1.861,-2.821 C 1.635,-2.418 1.405,-2.016 1.168,-1.615 L 0,0 c 0.657,-0.956 1.277,-1.891 1.861,-2.821 m -83.163,18.92 c -61.976,-40.319 -10.456,-130.274 54.15,-103.439 33.128,13.762 46.474,53.531 29.013,84.519 3.308,-5.269 5.479,-10.423 7.05,-18.819 13.218,-70.617 -87.253,-100.586 -115.657,-34.669 -12.983,30.131 -1.185,57.142 22.784,76.58 1.152,0.734 2.683,0.395 3.417,-0.756 0.734,-1.153 0.396,-2.682 -0.757,-3.416"
           id="path110"
           style="fill:#90bb5f;fill-opacity:1;fill-rule:evenodd;stroke:none" /></g><g
         transform="translate(534.09129,309.94255)"
         id="g136"><path
           d="m 0,0 0,0 c -1.732,3.134 -4.374,4.738 -7.853,5.601 -3.293,0.913 -8.078,0.04 -10.689,-2.765 -2.757,-2.755 -2.419,-6.731 -0.08,-10.372 -0.071,3.479 2.316,4.85 4.166,4.871 2.163,0.007 4.036,-0.939 6.63,-1.054 1.539,-0.036 2.936,-0.121 7.056,2.106 C -3.585,0.325 -11.372,2.722 -15.945,0.37 -11.523,3.205 -5.655,2.693 0,0 m -15.063,25.106 0,0 c -3.177,0.561 -7.694,-0.45 -10.271,-3.234 -2.701,-2.732 -2.668,-6.71 -0.55,-10.593 0.367,3.626 2.782,4.938 4.734,5.029 2.255,0.096 4.283,-0.789 7.033,-0.602 1.563,0.145 3.225,0.191 6.733,3.303 -3.098,1.113 -10.802,2.697 -15.357,0.353 4.406,2.955 10.045,2.737 15.733,1.417 -2.192,2.678 -4.685,3.807 -8.055,4.327 m 36.705,-22.138 0,0 C 19.436,4.43 15.823,5.046 12.416,4.364 8.926,3.783 6.228,1.624 4.804,0.179 c 5.218,-1.09 6.331,-1.175 7.919,-1.009 2.489,0.187 4.511,0.856 6.915,0.622 2.172,-0.332 4.465,-1.795 6.053,-6.007 1.783,4.557 1.33,8.699 -1.122,11.742 C 22.242,8.573 17.444,10.475 12.854,9.52 8.196,8.586 4.649,5.689 3.462,1.641 c 6.123,5.5 14.102,5.03 18.18,1.327 m -24.057,16.97 0,0 C -0.2,27.032 5.497,30.561 10.507,30.522 5.494,30.203 -0.444,23.406 -0.659,19.429 c 4.606,1.637 5.531,2.201 6.687,3.176 1.881,1.491 3.036,3.21 4.95,4.484 1.821,1.088 4.244,1.509 8.255,-0.103 -3.473,8.197 -12.637,9.512 -18.604,3.47 -2.787,-2.993 -4.073,-6.791 -3.044,-10.518"
           id="path138"
           style="fill:#90bb5f;fill-opacity:1;fill-rule:nonzero;stroke:none" /></g><g
         transform="translate(519.22019,356.10465)"
         id="g140"><path
           d="M 0,0 C -0.678,-0.687 -0.778,-0.746 -0.932,-1.265 L 0.16,-1.379 c 1.291,0.941 2.031,-0.16 3.63,1.73 C 2.546,1.246 2.729,0.35 1.128,0.803 0.244,0.552 0.749,0.761 0,0"
           id="path142"
           style="fill:#ff3c73;fill-opacity:1;fill-rule:evenodd;stroke:none" /></g><g
         transform="translate(519.22019,356.10465)"
         id="g144"><path
           d="M 0,0 C -0.678,-0.687 -0.778,-0.746 -0.932,-1.265 L 0.16,-1.379 c 1.291,0.941 2.031,-0.16 3.63,1.73 C 2.546,1.246 2.729,0.35 1.128,0.803 0.244,0.552 0.749,0.761 0,0 Z"
           id="path146"
           style="fill:none;stroke:#ff3c73;stroke-width:0.113;stroke-linecap:butt;stroke-linejoin:miter;stroke-miterlimit:2.41400003;stroke-opacity:1;stroke-dasharray:none" /></g><g
         transform="translate(492.39009,370.68865)"
         id="g148"><path
           d="M 0,0 C -0.368,1.791 0.559,0.228 -1.328,3.079 0.136,5.302 -1.342,4.874 -3.377,8.531 L -4.548,7.44 c -0.523,0.036 0.155,-0.693 -0.803,0.519 -1.243,1.224 -1.55,0.931 -2.726,1.589 1.082,-1.35 2.947,-7.229 5.1,-8.495 0.074,-0.043 0.159,-0.063 0.233,-0.1 1.934,-0.985 1.926,-1.313 4.094,-3.218 L 0,0 Z"
           id="path150"
           style="fill:#351611;fill-opacity:1;fill-rule:evenodd;stroke:none" /></g><g
         transform="translate(492.39009,370.68865)"
         id="g152"><path
           d="M 0,0 C -0.368,1.791 0.559,0.228 -1.328,3.079 0.136,5.302 -1.342,4.874 -3.377,8.531 L -4.548,7.44 c -0.523,0.036 0.155,-0.693 -0.803,0.519 -1.243,1.224 -1.55,0.931 -2.726,1.589 1.082,-1.35 2.947,-7.229 5.1,-8.495 0.074,-0.043 0.159,-0.063 0.233,-0.1 1.934,-0.985 1.926,-1.313 4.094,-3.218 L 0,0 Z"
           id="path154"
           style="fill:none;stroke:#351611;stroke-width:0.113;stroke-linecap:butt;stroke-linejoin:miter;stroke-miterlimit:2.41400003;stroke-opacity:1;stroke-dasharray:none" /></g><g
         transform="translate(494.70069,377.26775)"
         id="g156"><path
           d="m 0,0 c 1.967,-1.869 0.251,1.002 2.353,-1.431 l 0.985,-1.26 C 3.634,-2.11 3.683,-0.82 3.595,-0.253 3.302,1.637 2.421,0.836 2.947,2.829 L 2.515,3.332 C 1.193,2.706 2.677,4.264 0.477,2.457 L -0.056,3.906 0.867,4.669 C -0.21,5.219 -0.562,4.237 -1.22,4.378 L -3.812,5.95 C -3.062,4.622 -2.746,3.518 -3.036,2.494 -3.565,0.622 -3.158,3.842 -3.267,1.934 L -1.991,1.887 -1.883,3.218 0,0 Z"
           id="path158"
           style="fill:#351611;fill-opacity:1;fill-rule:evenodd;stroke:none" /></g><g
         transform="translate(494.70069,377.26775)"
         id="g160"><path
           d="m 0,0 c 1.967,-1.869 0.251,1.002 2.353,-1.431 l 0.985,-1.26 C 3.634,-2.11 3.683,-0.82 3.595,-0.253 3.302,1.637 2.421,0.836 2.947,2.829 L 2.515,3.332 C 1.193,2.706 2.677,4.264 0.477,2.457 L -0.056,3.906 0.867,4.669 C -0.21,5.219 -0.562,4.237 -1.22,4.378 L -3.812,5.95 C -3.062,4.622 -2.746,3.518 -3.036,2.494 -3.565,0.622 -3.158,3.842 -3.267,1.934 L -1.991,1.887 -1.883,3.218 0,0 Z"
           id="path162"
           style="fill:none;stroke:#351611;stroke-width:0.113;stroke-linecap:butt;stroke-linejoin:miter;stroke-miterlimit:2.41400003;stroke-opacity:1;stroke-dasharray:none" /></g><g
         transform="translate(489.01319,379.21985)"
         id="g164"><path
           d="m 0,0 c 2.035,-3.657 3.513,-3.229 2.049,-5.452 1.887,-2.852 0.96,-1.288 1.328,-3.079 l 0.266,0.567 1.924,-1.453 -1.589,4.182 C 5.055,-5.322 4.848,-5.522 5.711,-5.877 6.473,-6.188 6.636,-6.182 7.635,-5.96 L 6.962,-4.341 8.04,-3.383 C 5.938,-0.95 7.654,-3.821 5.688,-1.952 5.579,-2.822 5.487,-1.604 5.692,-2.731 5.831,-3.5 5.781,-2.889 5.941,-3.441 6.255,-4.524 6.386,-4.107 5.951,-5.1 4.84,-4.446 4.403,-4.392 3.987,-1.813 L 3.342,-2.898 C 3.218,-2.865 3.234,-3.149 3.161,-3.264 l -0.605,1.742 c -0.74,0.981 0.102,-0.215 -1.228,0.477 l 0.176,0.44 C 1.512,-0.559 1.541,-0.45 1.543,-0.401 1.546,-0.355 1.54,-0.248 1.538,-0.206 1.534,-0.137 1.312,0.287 1.268,0.372 0.192,0.777 0.498,0.753 -0.6,0.344 -0.377,0.208 -0.438,0.227 0,0"
           id="path166"
           style="fill:#521c10;fill-opacity:1;fill-rule:evenodd;stroke:none" /></g><g
         transform="translate(489.01319,379.21985)"
         id="g168"><path
           d="m 0,0 c 2.035,-3.657 3.513,-3.229 2.049,-5.452 1.887,-2.852 0.96,-1.288 1.328,-3.079 l 0.266,0.567 1.924,-1.453 -1.589,4.182 C 5.055,-5.322 4.848,-5.522 5.711,-5.877 6.473,-6.188 6.636,-6.182 7.635,-5.96 L 6.962,-4.341 8.04,-3.383 C 5.938,-0.95 7.654,-3.821 5.688,-1.952 5.579,-2.822 5.487,-1.604 5.692,-2.731 5.831,-3.5 5.781,-2.889 5.941,-3.441 6.255,-4.524 6.386,-4.107 5.951,-5.1 4.84,-4.446 4.403,-4.392 3.987,-1.813 L 3.342,-2.898 C 3.218,-2.865 3.234,-3.149 3.161,-3.264 l -0.605,1.742 c -0.74,0.981 0.102,-0.215 -1.228,0.477 l 0.176,0.44 C 1.512,-0.559 1.541,-0.45 1.543,-0.401 1.546,-0.355 1.54,-0.248 1.538,-0.206 1.534,-0.137 1.312,0.287 1.268,0.372 0.192,0.777 0.498,0.753 -0.6,0.344 -0.377,0.208 -0.438,0.227 0,0 Z"
           id="path170"
           style="fill:none;stroke:#521c10;stroke-width:0.113;stroke-linecap:butt;stroke-linejoin:miter;stroke-miterlimit:2.41400003;stroke-opacity:1;stroke-dasharray:none" /></g><g
         transform="translate(507.46049,377.14075)"
         id="g172"><path
           d="M 0,0 1.586,1.604 1.35,2.082 C 1.106,2.627 1.002,2.84 1.009,3.6 L 1.761,3.693 C 1.028,4.772 1.334,4.779 1.058,5.78 0.775,4.911 0.513,5.277 0.29,4.638 L 0.225,3.726 C -0.521,3.706 -0.67,3.691 -1.167,3.392 -1.23,1.558 -1.585,0.049 -0.277,-1.213 -0.563,-0.061 -0.512,-0.653 0,0 m -17.18,2.451 c 0.044,-0.085 0.267,-0.509 0.271,-0.578 0.003,-0.042 0.008,-0.149 0.005,-0.195 -0.003,-0.049 -0.032,-0.157 -0.039,-0.203 l -0.177,-0.44 c 1.331,-0.693 0.489,0.504 1.228,-0.477 l 0.605,-1.743 c 0.073,0.115 0.058,0.399 0.182,0.366 l 0.645,1.086 c 0.415,-2.58 0.853,-2.634 1.964,-3.287 0.434,0.993 0.303,0.575 -0.01,1.659 -0.16,0.552 -0.11,-0.06 -0.249,0.709 -0.205,1.128 -0.113,-0.091 -0.004,0.78 l -1.884,3.217 -0.109,-1.33 -1.274,0.047 c 0.108,1.907 -0.299,-1.313 0.23,0.559 0.29,1.023 -0.025,2.129 -0.775,3.456 -0.835,-0.976 -0.616,-0.862 -0.458,-1.942 0.149,-1.029 0.187,-0.581 -0.151,-1.684 m -1.962,-14.714 1.177,0.619 c 1.012,-0.43 1.115,-0.538 1.928,-0.099 l -2.547,3.777 2.965,0.235 2.188,-3.067 c 0.668,2.257 -0.144,0.998 0.399,2.003 1.544,-2.427 1.029,-1.405 1.71,-2.088 0.772,-0.776 0.749,-1.242 1.681,-2.392 l -3.429,-1.666 c -1.149,-0.221 -1.115,0.764 -3.368,-0.164 l 2.649,-1.087 1.399,-0.028 1.882,0.377 0.458,2.092 1.457,-1.138 c 0.697,0.856 0.438,0.715 1.1,1.465 1.171,-0.703 0.513,-0.71 1.854,-0.564 l -0.385,1.167 c -0.918,1.376 -2.331,4.543 -2.135,5.629 1.895,-1.38 1.35,-1.238 2.061,-0.551 0.632,0.61 0.234,1.245 -0.122,1.934 2.039,0.288 1.028,0.077 1.866,0.055 l 0.985,2.58 -0.409,0.78 c 0.013,2.281 -1.662,2.265 -0.889,4.885 0.996,3.375 -0.935,0.456 -0.154,2.995 l -2.351,2.752 c -3.02,-2.692 -1.349,-1.111 -2.883,-1.72 0.188,-1.693 0.019,-3.242 0.242,-3.562 -0.526,-1.993 0.355,-1.192 0.648,-3.082 0.088,-0.567 0.039,-1.857 -0.257,-2.438 l -0.985,1.26 -1.078,-0.958 0.672,-1.619 c -0.999,-0.222 -1.163,-0.228 -1.923,0.084 -0.865,0.354 -0.657,0.554 -1.734,0.641 l 1.59,-4.181 -1.926,1.452 -0.265,-0.567 1.35,-2.265 c -2.168,1.904 -2.159,2.233 -4.092,3.218 -0.076,0.038 -0.161,0.057 -0.235,0.101 -2.152,1.266 -4.017,7.145 -5.099,8.494 l -1.278,-1.167 2.511,-3.429 2.102,-2.262 c -1.504,0.112 -2.445,0.317 -3.633,1.29 l 0.871,0.743 c -1.052,-0.272 -0.787,-0.174 -1.692,-0.995 l -0.623,0.676 -1.217,-0.171 c -0.01,-0.33 -0.266,-0.511 -0.339,-0.879 0.967,-1.524 0.792,-0.962 -0.808,-2.238 0.304,-0.327 1.339,-1.384 1.501,-1.71 0.549,-1.104 0.594,-0.84 -0.406,-1.855 0.605,-0.26 0.43,-0.059 0.928,-0.133 1.602,-0.237 1.202,-0.793 2.542,-1.166 1.724,-0.48 0.5,0.81 2.614,-1.24 l 0.462,-0.436 c 0.062,-0.059 0.255,-0.233 0.234,-0.196 -0.019,0.036 0.149,-0.14 0.236,-0.191 m 15.81,3.416 c 1.703,-2.817 0.38,-2.895 -0.03,-7.547 -2.786,-1.654 -1.485,-0.986 -2.749,-0.94 0.789,-1.587 0.507,-1.119 0.982,-1.281 -0.281,0.658 -0.659,0.273 0.171,0.672 l 1.297,-0.641 c 0.347,-0.765 0.513,-1.133 0.233,-1.895 0.992,-1.68 0.838,-1.061 2.3,0.402 -1.226,1.112 -0.862,0.7 -1.682,1.912 0.843,0.543 0.793,0.451 1.881,0.884 l 0.33,-0.125 0.992,-0.34 0.046,-2.223 c 2.102,1.028 0.598,0.569 3.212,4.177 l -0.412,0.494 -1.906,-2.316 c -0.686,1.902 -0.394,0.846 0.014,2.285 0.489,1.725 -0.57,0.704 0.422,2.197 l -0.319,0.714 c -1.753,3.966 -2.989,3.132 -1.504,4.378 l 0.621,0.878 0.883,-0.124 c 2.76,1.39 1.138,0.051 2.6,0.478 0.043,1.81 -0.326,1.608 0.895,3.514 L 5.01,-3.295 4.418,-2.429 3.347,-3.796 1.943,-2.804 C 1.197,-3.512 0.646,-3.894 0.229,-4.638 L 0.004,-5.079 c -1.123,-2.009 -0.967,-2.555 -1.656,-3.465 0.599,-0.834 1.367,-1.734 1.506,-2.722 -2.805,1.266 -1.534,2.127 -3.583,4.59 0.291,-0.722 0.624,-1.518 0.397,-2.171"
           id="path174"
           style="fill:#800206;fill-opacity:1;fill-rule:evenodd;stroke:none" /></g><g
         transform="translate(507.46049,377.14075)"
         id="g176"><path
           d="M 0,0 1.586,1.604 1.35,2.082 C 1.106,2.627 1.002,2.84 1.009,3.6 L 1.761,3.693 C 1.028,4.772 1.334,4.779 1.058,5.78 0.775,4.911 0.513,5.277 0.29,4.638 L 0.225,3.726 C -0.521,3.706 -0.67,3.691 -1.167,3.392 -1.23,1.558 -1.585,0.049 -0.277,-1.213 -0.563,-0.061 -0.512,-0.653 0,0 z m -17.18,2.451 c 0.044,-0.085 0.267,-0.509 0.271,-0.578 0.003,-0.042 0.008,-0.149 0.005,-0.195 -0.003,-0.049 -0.032,-0.157 -0.039,-0.203 l -0.177,-0.44 c 1.331,-0.693 0.489,0.504 1.228,-0.477 l 0.605,-1.743 c 0.073,0.115 0.058,0.399 0.182,0.366 l 0.645,1.086 c 0.415,-2.58 0.853,-2.634 1.964,-3.287 0.434,0.993 0.303,0.575 -0.01,1.659 -0.16,0.552 -0.11,-0.06 -0.249,0.709 -0.205,1.128 -0.113,-0.091 -0.004,0.78 l -1.884,3.217 -0.109,-1.33 -1.274,0.047 c 0.108,1.907 -0.299,-1.313 0.23,0.559 0.29,1.023 -0.025,2.129 -0.775,3.456 C -17.406,5.101 -17.187,5.215 -17.029,4.135 -16.88,3.106 -16.842,3.554 -17.18,2.451 z m -1.962,-14.714 1.177,0.619 c 1.012,-0.43 1.115,-0.538 1.928,-0.099 l -2.547,3.777 2.965,0.235 2.188,-3.067 c 0.668,2.257 -0.144,0.998 0.399,2.003 1.544,-2.427 1.029,-1.405 1.71,-2.088 0.772,-0.776 0.749,-1.242 1.681,-2.392 l -3.429,-1.666 c -1.149,-0.221 -1.115,0.764 -3.368,-0.164 l 2.649,-1.087 1.399,-0.028 1.882,0.377 0.458,2.092 1.457,-1.138 c 0.697,0.856 0.438,0.715 1.1,1.465 1.171,-0.703 0.513,-0.71 1.854,-0.564 l -0.385,1.167 c -0.918,1.376 -2.331,4.543 -2.135,5.629 1.895,-1.38 1.35,-1.238 2.061,-0.551 0.632,0.61 0.234,1.245 -0.122,1.934 2.039,0.288 1.028,0.077 1.866,0.055 l 0.985,2.58 -0.409,0.78 c 0.013,2.281 -1.662,2.265 -0.889,4.885 0.996,3.375 -0.935,0.456 -0.154,2.995 l -2.351,2.752 c -3.02,-2.692 -1.349,-1.111 -2.883,-1.72 0.188,-1.693 0.019,-3.242 0.242,-3.562 -0.526,-1.993 0.355,-1.192 0.648,-3.082 0.088,-0.567 0.039,-1.857 -0.257,-2.438 l -0.985,1.26 -1.078,-0.958 0.672,-1.619 c -0.999,-0.222 -1.163,-0.228 -1.923,0.084 -0.865,0.354 -0.657,0.554 -1.734,0.641 l 1.59,-4.181 -1.926,1.452 -0.265,-0.567 1.35,-2.265 c -2.168,1.904 -2.159,2.233 -4.092,3.218 -0.076,0.038 -0.161,0.057 -0.235,0.101 -2.152,1.266 -4.017,7.145 -5.099,8.494 l -1.278,-1.167 2.511,-3.429 2.102,-2.262 c -1.504,0.112 -2.445,0.317 -3.633,1.29 l 0.871,0.743 c -1.052,-0.272 -0.787,-0.174 -1.692,-0.995 l -0.623,0.676 -1.217,-0.171 c -0.01,-0.33 -0.266,-0.511 -0.339,-0.879 0.967,-1.524 0.792,-0.962 -0.808,-2.238 0.304,-0.327 1.339,-1.384 1.501,-1.71 0.549,-1.104 0.594,-0.84 -0.406,-1.855 0.605,-0.26 0.43,-0.059 0.928,-0.133 1.602,-0.237 1.202,-0.793 2.542,-1.166 1.724,-0.48 0.5,0.81 2.614,-1.24 l 0.462,-0.436 c 0.062,-0.059 0.255,-0.233 0.234,-0.196 C -19.397,-12.036 -19.229,-12.212 -19.142,-12.263 z m 15.81,3.416 c 1.703,-2.817 0.38,-2.895 -0.03,-7.547 -2.786,-1.654 -1.485,-0.986 -2.749,-0.94 0.789,-1.587 0.507,-1.119 0.982,-1.281 -0.281,0.658 -0.659,0.273 0.171,0.672 l 1.297,-0.641 c 0.347,-0.765 0.513,-1.133 0.233,-1.895 0.992,-1.68 0.838,-1.061 2.3,0.402 -1.226,1.112 -0.862,0.7 -1.682,1.912 0.843,0.543 0.793,0.451 1.881,0.884 l 0.33,-0.125 0.992,-0.34 0.046,-2.223 c 2.102,1.028 0.598,0.569 3.212,4.177 l -0.412,0.494 -1.906,-2.316 c -0.686,1.902 -0.394,0.846 0.014,2.285 0.489,1.725 -0.57,0.704 0.422,2.197 l -0.319,0.714 c -1.753,3.966 -2.989,3.132 -1.504,4.378 l 0.621,0.878 0.883,-0.124 c 2.76,1.39 1.138,0.051 2.6,0.478 0.043,1.81 -0.326,1.608 0.895,3.514 L 5.01,-3.295 4.418,-2.429 3.347,-3.796 1.943,-2.804 C 1.197,-3.512 0.646,-3.894 0.229,-4.638 L 0.004,-5.079 c -1.123,-2.009 -0.967,-2.555 -1.656,-3.465 0.599,-0.834 1.367,-1.734 1.506,-2.722 C -2.951,-10 -1.68,-9.139 -3.729,-6.676 -3.438,-7.398 -3.105,-8.194 -3.332,-8.847 Z"
           id="path178"
           style="fill:none;stroke:#800206;stroke-width:0.113;stroke-linecap:butt;stroke-linejoin:miter;stroke-miterlimit:2.41400003;stroke-opacity:1;stroke-dasharray:none" /></g><g
         transform="translate(504.76609,384.99915)"
         id="g180"><path
           d="m 0,0 c -0.107,-0.648 0.104,-0.135 -0.322,-0.838 -0.199,-0.329 -0.3,-0.436 -0.583,-0.708 -0.461,-0.438 -0.711,-0.542 -1.222,-0.827 -0.779,-2.538 1.151,0.381 0.154,-2.994 -0.772,-2.62 0.903,-2.606 0.889,-4.885 1.276,2.315 2.533,1.381 2.799,-1.407 -0.866,-0.31 -0.588,-0.378 -1.169,-0.278 -1.202,0.208 -0.373,-0.081 -1.221,0.904 l -0.984,-2.58 c -0.839,0.022 0.173,0.232 -1.866,-0.055 0.355,-0.689 0.754,-1.324 0.122,-1.935 -0.711,-0.685 -0.166,-0.828 -2.062,0.551 -0.196,-1.085 1.217,-4.253 2.135,-5.628 l 0.099,1.474 2.025,-0.921 c 0.395,1.56 -0.527,2.319 0.568,3.421 0.227,0.652 -0.105,1.448 -0.397,2.172 2.05,-2.464 0.778,-3.325 3.584,-4.591 -0.14,0.988 -0.907,1.888 -1.507,2.722 0.689,0.911 0.534,1.456 1.657,3.465 l 0.225,0.442 c 0.417,0.743 0.968,1.125 1.714,1.833 l 1.404,-0.991 1.07,1.367 0.592,-0.866 0.19,0.155 c -0.978,2.377 -0.891,0.133 -1.715,3.702 -0.687,2.974 -1.517,1.609 -1.501,3.411 L 4.455,-4.165 3.704,-4.259 C 3.696,-5.02 3.801,-5.232 4.045,-5.776 L 4.28,-6.255 2.694,-7.859 C 2.183,-8.513 2.131,-7.92 2.417,-9.071 c -1.308,1.261 -0.953,2.769 -0.89,4.604 0.497,0.299 0.646,0.314 1.392,0.333 l 0.065,0.913 c 0.223,0.64 0.487,0.273 0.768,1.142 L 3.861,-1.332 3.369,-0.599 1.678,-1.431 C 1.704,-0.993 2.193,-1.905 1.087,0.246 L 2.07,0.923 1.024,0.963 0,0 z m -4.854,-35.454 c 3.199,0.45 1.701,-0.451 2.75,0.388 -0.08,0.847 -0.439,1.369 -0.526,1.613 -0.726,2.03 -0.612,1.87 -0.39,3.54 0.917,0.221 0.279,0.226 1.128,0.102 -1.396,1.198 -0.515,0.375 -0.316,0.762 l -1.269,1.721 c -0.706,-1.352 -1.248,-3.226 -0.706,-4.713 l -0.476,-0.095 c -0.055,-0.017 -0.166,-0.038 -0.224,-0.059 -1.299,-0.489 -0.792,-1.383 -0.246,-2.432 0.539,-1.036 0.474,0.184 0.275,-0.827 m -4.841,11.375 2.656,-2.119 c 0.396,0.852 0.172,1.326 -0.002,2.572 l 1.143,0.879 -1.457,1.138 -0.458,-2.093 L -9.695,-24.079 z m -14.061,3.935 c 1.468,-2.54 3.171,-1.278 5.338,-3.333 0.594,-0.562 1.083,-0.964 1.731,-1.586 -3.248,-2.315 -1.332,-1.29 -5.676,-2.045 0.871,-0.662 0.963,-0.574 1.765,-1.095 0.981,0.036 0.031,0.196 0.839,-0.111 l 2.143,-1.13 c 0.486,1.221 -0.295,0.957 -0.787,1.766 l 1.019,0.446 c 0.124,0.331 -0.083,0.917 0.407,1.3 l 1.859,1.186 2.186,-0.944 c 0.769,1.065 0.488,1.371 1.837,1.638 l -2.649,1.088 c 2.254,0.928 2.22,-0.057 3.368,0.163 l 3.431,1.666 c -0.934,1.152 -0.91,1.616 -1.683,2.393 -0.681,0.683 -0.166,-0.338 -1.71,2.088 -0.543,-1.004 0.27,0.255 -0.398,-2.002 l -2.189,3.065 -2.964,-0.234 2.546,-3.778 c -0.812,-0.438 -0.915,-0.331 -1.928,0.1 l -1.176,-0.619 c -0.087,0.051 -0.256,0.226 -0.236,0.19 0.02,-0.037 -0.172,0.138 -0.235,0.198 l -0.462,0.434 c -2.114,2.051 -0.89,0.761 -2.614,1.24 -1.34,0.373 -0.94,0.93 -2.542,1.167 -0.497,0.074 -0.322,-0.127 -0.928,0.132 l -1.012,-0.543 c 0.773,-1.092 0.575,-1.234 1.604,-1.509 -0.318,-0.61 -0.371,-0.981 -0.884,-1.331 m 31.586,0.612 c 0.354,-0.814 0.256,-1.162 0.044,-2.418 l -0.16,-0.754 c -0.068,0.025 -0.05,-0.177 -0.067,-0.267 0.971,0.036 0.259,0.303 1.056,-0.388 0.483,-0.419 1.268,-1.692 0.944,-2.758 0.675,-0.237 1.254,0.145 2.409,1.254 0.027,0.026 0.098,0.087 0.122,0.117 0.024,0.031 0.08,0.11 0.099,0.146 0.215,0.404 0.098,1.275 0.085,1.746 l 1.429,-0.209 c 0.055,0.09 0.318,0.531 0.355,0.612 l 0.358,0.903 c -1.367,-0.464 -0.676,0.501 -3.348,1.08 -2.166,0.469 -1.043,0.713 -2.281,1.388 -0.868,0.475 -0.077,0.585 -1.044,0.179 L 7.83,-19.532 Z M 2.694,-7.859 5.126,-6.313 4.903,-9.484 c -0.086,0.024 -0.266,0.14 -0.25,0.094 l -0.917,0.585 c -0.541,0.437 -0.502,0.436 -1.042,0.946"
           id="path182"
           style="fill:#a40007;fill-opacity:1;fill-rule:evenodd;stroke:none" /></g><g
         transform="translate(504.76609,384.99915)"
         id="g184"><path
           d="m 0,0 c -0.107,-0.648 0.104,-0.135 -0.322,-0.838 -0.199,-0.329 -0.3,-0.436 -0.583,-0.708 -0.461,-0.438 -0.711,-0.542 -1.222,-0.827 -0.779,-2.538 1.151,0.381 0.154,-2.994 -0.772,-2.62 0.903,-2.606 0.889,-4.885 1.276,2.315 2.533,1.381 2.799,-1.407 -0.866,-0.31 -0.588,-0.378 -1.169,-0.278 -1.202,0.208 -0.373,-0.081 -1.221,0.904 l -0.984,-2.58 c -0.839,0.022 0.173,0.232 -1.866,-0.055 0.355,-0.689 0.754,-1.324 0.122,-1.935 -0.711,-0.685 -0.166,-0.828 -2.062,0.551 -0.196,-1.085 1.217,-4.253 2.135,-5.628 l 0.099,1.474 2.025,-0.921 c 0.395,1.56 -0.527,2.319 0.568,3.421 0.227,0.652 -0.105,1.448 -0.397,2.172 2.05,-2.464 0.778,-3.325 3.584,-4.591 -0.14,0.988 -0.907,1.888 -1.507,2.722 0.689,0.911 0.534,1.456 1.657,3.465 l 0.225,0.442 c 0.417,0.743 0.968,1.125 1.714,1.833 l 1.404,-0.991 1.07,1.367 0.592,-0.866 0.19,0.155 c -0.978,2.377 -0.891,0.133 -1.715,3.702 -0.687,2.974 -1.517,1.609 -1.501,3.411 L 4.455,-4.165 3.704,-4.259 C 3.696,-5.02 3.801,-5.232 4.045,-5.776 L 4.28,-6.255 2.694,-7.859 C 2.183,-8.513 2.131,-7.92 2.417,-9.071 c -1.308,1.261 -0.953,2.769 -0.89,4.604 0.497,0.299 0.646,0.314 1.392,0.333 l 0.065,0.913 c 0.223,0.64 0.487,0.273 0.768,1.142 L 3.861,-1.332 3.369,-0.599 1.678,-1.431 C 1.704,-0.993 2.193,-1.905 1.087,0.246 L 2.07,0.923 1.024,0.963 0,0 z m -4.854,-35.454 c 3.199,0.45 1.701,-0.451 2.75,0.388 -0.08,0.847 -0.439,1.369 -0.526,1.613 -0.726,2.03 -0.612,1.87 -0.39,3.54 0.917,0.221 0.279,0.226 1.128,0.102 -1.396,1.198 -0.515,0.375 -0.316,0.762 l -1.269,1.721 c -0.706,-1.352 -1.248,-3.226 -0.706,-4.713 l -0.476,-0.095 c -0.055,-0.017 -0.166,-0.038 -0.224,-0.059 -1.299,-0.489 -0.792,-1.383 -0.246,-2.432 C -4.59,-35.663 -4.655,-34.443 -4.854,-35.454 z m -4.841,11.375 2.656,-2.119 c 0.396,0.852 0.172,1.326 -0.002,2.572 l 1.143,0.879 -1.457,1.138 -0.458,-2.093 L -9.695,-24.079 z m -14.061,3.935 c 1.468,-2.54 3.171,-1.278 5.338,-3.333 0.594,-0.562 1.083,-0.964 1.731,-1.586 -3.248,-2.315 -1.332,-1.29 -5.676,-2.045 0.871,-0.662 0.963,-0.574 1.765,-1.095 0.981,0.036 0.031,0.196 0.839,-0.111 l 2.143,-1.13 c 0.486,1.221 -0.295,0.957 -0.787,1.766 l 1.019,0.446 c 0.124,0.331 -0.083,0.917 0.407,1.3 l 1.859,1.186 2.186,-0.944 c 0.769,1.065 0.488,1.371 1.837,1.638 l -2.649,1.088 c 2.254,0.928 2.22,-0.057 3.368,0.163 l 3.431,1.666 c -0.934,1.152 -0.91,1.616 -1.683,2.393 -0.681,0.683 -0.166,-0.338 -1.71,2.088 -0.543,-1.004 0.27,0.255 -0.398,-2.002 l -2.189,3.065 -2.964,-0.234 2.546,-3.778 c -0.812,-0.438 -0.915,-0.331 -1.928,0.1 l -1.176,-0.619 c -0.087,0.051 -0.256,0.226 -0.236,0.19 0.02,-0.037 -0.172,0.138 -0.235,0.198 l -0.462,0.434 c -2.114,2.051 -0.89,0.761 -2.614,1.24 -1.34,0.373 -0.94,0.93 -2.542,1.167 -0.497,0.074 -0.322,-0.127 -0.928,0.132 l -1.012,-0.543 c 0.773,-1.092 0.575,-1.234 1.604,-1.509 C -23.19,-19.423 -23.243,-19.794 -23.756,-20.144 z m 31.586,0.612 c 0.354,-0.814 0.256,-1.162 0.044,-2.418 l -0.16,-0.754 c -0.068,0.025 -0.05,-0.177 -0.067,-0.267 0.971,0.036 0.259,0.303 1.056,-0.388 0.483,-0.419 1.268,-1.692 0.944,-2.758 0.675,-0.237 1.254,0.145 2.409,1.254 0.027,0.026 0.098,0.087 0.122,0.117 0.024,0.031 0.08,0.11 0.099,0.146 0.215,0.404 0.098,1.275 0.085,1.746 l 1.429,-0.209 c 0.055,0.09 0.318,0.531 0.355,0.612 l 0.358,0.903 c -1.367,-0.464 -0.676,0.501 -3.348,1.08 -2.166,0.469 -1.043,0.713 -2.281,1.388 -0.868,0.475 -0.077,0.585 -1.044,0.179 L 7.83,-19.532 Z M 2.694,-7.859 5.126,-6.313 4.903,-9.484 C 4.817,-9.46 4.637,-9.344 4.653,-9.39 L 3.736,-8.805 C 3.195,-8.368 3.234,-8.369 2.694,-7.859 Z"
           id="path186"
           style="fill:none;stroke:#a40007;stroke-width:0.113;stroke-linecap:butt;stroke-linejoin:miter;stroke-miterlimit:2.41400003;stroke-opacity:1;stroke-dasharray:none" /></g><g
         transform="translate(509.22899,364.00895)"
         id="g188"><path
           d="M 0,0 C 0.952,1.072 0.809,0.976 1.993,0.585 L 2.926,0.897 C 2.909,0.978 3.102,0.928 3.189,0.944 2.46,-0.928 3.109,-0.364 1.993,-1.549 L 0,0 z m -28.69,-5.574 0.297,-0.34 1.348,-0.286 c 0.979,0.449 -0.463,0.397 0.219,0.083 4.345,0.756 2.429,-0.271 5.677,2.044 -0.649,0.622 -1.138,1.025 -1.732,1.588 -2.167,2.054 -3.87,0.793 -5.338,3.333 l -1.691,-1.274 -0.343,-0.44 c 1.097,-1.39 1.756,-0.362 3.188,-1.712 -0.96,-0.002 -1.918,0.532 -2.978,-0.177 L -27.574,-4.587 -28.69,-5.574 z m 13.919,-11.719 c 0.817,-0.829 0.883,-1.103 2.917,0.721 0.879,0.787 0.488,0.04 0.667,0.926 l -0.356,0.97 c 0.086,0.014 0.163,0.07 0.261,0.002 l 1.966,0.211 c 0.198,1.011 0.263,-0.21 -0.276,0.827 -0.546,1.048 -1.053,1.943 0.246,2.431 0.059,0.022 0.169,0.043 0.225,0.059 l 0.475,0.096 c -0.541,1.487 0.001,3.361 0.707,4.712 l 1.268,-1.721 c 0.401,1.137 -0.046,0.325 -0.226,2.576 -0.476,0.162 -0.194,-0.306 -0.982,1.28 1.265,-0.045 -0.037,-0.714 2.749,0.941 0.409,4.652 1.733,4.73 0.029,7.547 C -6.196,3.183 -5.273,2.424 -5.669,0.864 l -2.025,0.921 -0.099,-1.474 0.386,-1.167 c -1.341,-0.146 -0.683,-0.139 -1.854,0.564 -0.663,-0.75 -0.404,-0.609 -1.1,-1.465 l -1.142,-0.879 c 0.174,-1.246 0.399,-1.719 10e-4,-2.571 l -2.655,2.118 -1.401,0.028 c -1.349,-0.267 -1.068,-0.573 -1.836,-1.638 l -2.186,0.943 -1.859,-1.185 c -0.491,-0.384 -0.284,-0.97 -0.407,-1.3 l -1.02,-0.447 c 0.492,-0.808 1.274,-0.543 0.787,-1.765 l -2.143,1.129 c -0.807,0.307 0.142,0.147 -0.838,0.111 1.992,-1.904 1.64,-1.703 3.075,-3.571 l -1.276,-2.112 7.346,-0.938 L -14.771,-17.293 z m -0.164,6.556 c 0.965,2.587 -1.496,1.257 2.75,4.233 l 1.418,-1.339 c -0.87,-1.585 -1.242,-0.041 -0.504,-3.238 0.42,-1.822 -0.09,-1.598 -3.461,-5.102 0.036,0.695 1.176,1.968 2.108,3.656 -1.141,0.565 -0.172,-0.381 -2.689,0.679 l 1.817,0.736 c -0.024,0.072 -0.15,0.23 -0.123,0.191 0.025,-0.037 -0.102,0.149 -0.132,0.169 -0.817,0.562 -0.696,0.333 -1.184,0.015 M 3.431,9.993 C 5.127,11.243 5.084,11.107 6.553,9.668 4.976,8.472 5.034,8.275 3.833,8.168 L 3.177,9.838 C 1.955,7.932 2.324,8.134 2.281,6.324 0.819,5.896 2.442,7.236 -0.318,5.846 0.311,4.963 0.344,5.712 0.142,4.749 0.077,4.442 -0.561,3.925 -0.761,3.707 L -1.822,5.092 C -3.308,3.846 -2.071,4.68 -0.318,0.714 L 0,0 C -0.991,-1.493 0.067,-0.474 -0.421,-2.197 -0.829,-3.636 -1.12,-2.58 -0.435,-4.482 L 1.472,-2.166 1.884,-2.66 C -0.73,-6.269 0.772,-5.81 -1.328,-6.837 l -0.047,2.223 -0.992,0.34 -0.33,0.125 c -1.087,-0.433 -1.038,-0.341 -1.88,-0.884 0.819,-1.212 0.455,-0.8 1.681,-1.912 l -0.193,-1.138 c 0.082,-0.008 0.153,0.093 0.244,0.04 l 1.882,0.597 0.089,0.227 1.285,0.818 1.079,0.622 c 0.734,0.048 1.138,-0.21 1.639,-0.528 0.642,-0.407 0.173,0.099 0.462,-0.471 0.031,-0.061 0.105,-0.552 0.186,-0.747 0.499,1.329 -0.169,0.465 1.028,1.714 l 1.299,-1.719 0.052,0.03 -1.529,1.752 -2.344,0.919 0.15,0.791 c 0.034,0.168 0.099,0.524 0.139,0.682 0.166,0.654 0.255,0.835 0.613,1.376 0.016,0.09 -0.002,0.292 0.066,0.266 l 0.16,0.754 C 3.623,0.297 3.721,0.646 3.367,1.458 L 3.368,2.089 3.397,3.003 4.868,2.355 C 5.43,4.823 5.419,3.161 6.836,5.71 L 8.858,7.372 10.144,6.647 C 8.844,5.083 9.058,5.111 8.713,4.58 8.073,3.597 8.676,4.371 8.101,4.109 L 6.279,3.07 9.364,-0.104 c 1.091,0.711 1.663,0.811 1.836,2.252 L 9.853,0.838 8.403,2.645 c 1.408,1.092 1.51,1.209 2.566,-0.282 l -0.016,0.99 c 0.026,0.28 0.122,0.772 0.198,1.118 0.116,0.522 -0.239,0.651 1.083,1.845 -0.41,0.713 -0.205,0.527 -0.256,0.811 -0.139,0.764 0.021,0.327 -0.075,0.886 l -0.581,1.659 4.998,2.661 c -1.61,0.071 -2.627,-0.811 -3.955,-1.635 -1.126,1.307 -0.764,1.132 -0.927,2.397 -0.592,-1.074 -1.025,-1.994 -1.962,-2.474 -1.83,-0.934 -1.433,0.475 -2.305,1.912 l 2.716,1.01 c -0.761,0.245 -3.03,0.183 -1.708,4.061 L 6.26,17.424 4.719,16.869 C 2.932,20.204 3,19.554 0.215,17.105 0.199,15.305 1.029,16.669 1.716,13.695 2.54,10.126 2.453,12.37 3.431,9.993"
           id="path190"
           style="fill:#ca0109;fill-opacity:1;fill-rule:evenodd;stroke:none" /></g><g
         transform="translate(509.22899,364.00895)"
         id="g192"><path
           d="M 0,0 C 0.952,1.072 0.809,0.976 1.993,0.585 L 2.926,0.897 C 2.909,0.978 3.102,0.928 3.189,0.944 2.46,-0.928 3.109,-0.364 1.993,-1.549 L 0,0 z m -28.69,-5.574 0.297,-0.34 1.348,-0.286 c 0.979,0.449 -0.463,0.397 0.219,0.083 4.345,0.756 2.429,-0.271 5.677,2.044 -0.649,0.622 -1.138,1.025 -1.732,1.588 -2.167,2.054 -3.87,0.793 -5.338,3.333 l -1.691,-1.274 -0.343,-0.44 c 1.097,-1.39 1.756,-0.362 3.188,-1.712 -0.96,-0.002 -1.918,0.532 -2.978,-0.177 L -27.574,-4.587 -28.69,-5.574 z m 13.919,-11.719 c 0.817,-0.829 0.883,-1.103 2.917,0.721 0.879,0.787 0.488,0.04 0.667,0.926 l -0.356,0.97 c 0.086,0.014 0.163,0.07 0.261,0.002 l 1.966,0.211 c 0.198,1.011 0.263,-0.21 -0.276,0.827 -0.546,1.048 -1.053,1.943 0.246,2.431 0.059,0.022 0.169,0.043 0.225,0.059 l 0.475,0.096 c -0.541,1.487 0.001,3.361 0.707,4.712 l 1.268,-1.721 c 0.401,1.137 -0.046,0.325 -0.226,2.576 -0.476,0.162 -0.194,-0.306 -0.982,1.28 1.265,-0.045 -0.037,-0.714 2.749,0.941 0.409,4.652 1.733,4.73 0.029,7.547 C -6.196,3.183 -5.273,2.424 -5.669,0.864 l -2.025,0.921 -0.099,-1.474 0.386,-1.167 c -1.341,-0.146 -0.683,-0.139 -1.854,0.564 -0.663,-0.75 -0.404,-0.609 -1.1,-1.465 l -1.142,-0.879 c 0.174,-1.246 0.399,-1.719 10e-4,-2.571 l -2.655,2.118 -1.401,0.028 c -1.349,-0.267 -1.068,-0.573 -1.836,-1.638 l -2.186,0.943 -1.859,-1.185 c -0.491,-0.384 -0.284,-0.97 -0.407,-1.3 l -1.02,-0.447 c 0.492,-0.808 1.274,-0.543 0.787,-1.765 l -2.143,1.129 c -0.807,0.307 0.142,0.147 -0.838,0.111 1.992,-1.904 1.64,-1.703 3.075,-3.571 l -1.276,-2.112 7.346,-0.938 L -14.771,-17.293 z m -0.164,6.556 c 0.965,2.587 -1.496,1.257 2.75,4.233 l 1.418,-1.339 c -0.87,-1.585 -1.242,-0.041 -0.504,-3.238 0.42,-1.822 -0.09,-1.598 -3.461,-5.102 0.036,0.695 1.176,1.968 2.108,3.656 -1.141,0.565 -0.172,-0.381 -2.689,0.679 l 1.817,0.736 c -0.024,0.072 -0.15,0.23 -0.123,0.191 0.025,-0.037 -0.102,0.149 -0.132,0.169 C -14.568,-10.19 -14.447,-10.419 -14.935,-10.737 Z M 3.431,9.993 C 5.127,11.243 5.084,11.107 6.553,9.668 4.976,8.472 5.034,8.275 3.833,8.168 L 3.177,9.838 C 1.955,7.932 2.324,8.134 2.281,6.324 0.819,5.896 2.442,7.236 -0.318,5.846 0.311,4.963 0.344,5.712 0.142,4.749 0.077,4.442 -0.561,3.925 -0.761,3.707 L -1.822,5.092 C -3.308,3.846 -2.071,4.68 -0.318,0.714 L 0,0 C -0.991,-1.493 0.067,-0.474 -0.421,-2.197 -0.829,-3.636 -1.12,-2.58 -0.435,-4.482 L 1.472,-2.166 1.884,-2.66 C -0.73,-6.269 0.772,-5.81 -1.328,-6.837 l -0.047,2.223 -0.992,0.34 -0.33,0.125 c -1.087,-0.433 -1.038,-0.341 -1.88,-0.884 0.819,-1.212 0.455,-0.8 1.681,-1.912 l -0.193,-1.138 c 0.082,-0.008 0.153,0.093 0.244,0.04 l 1.882,0.597 0.089,0.227 1.285,0.818 1.079,0.622 c 0.734,0.048 1.138,-0.21 1.639,-0.528 0.642,-0.407 0.173,0.099 0.462,-0.471 0.031,-0.061 0.105,-0.552 0.186,-0.747 0.499,1.329 -0.169,0.465 1.028,1.714 l 1.299,-1.719 0.052,0.03 -1.529,1.752 -2.344,0.919 0.15,0.791 c 0.034,0.168 0.099,0.524 0.139,0.682 0.166,0.654 0.255,0.835 0.613,1.376 0.016,0.09 -0.002,0.292 0.066,0.266 l 0.16,0.754 C 3.623,0.297 3.721,0.646 3.367,1.458 L 3.368,2.089 3.397,3.003 4.868,2.355 C 5.43,4.823 5.419,3.161 6.836,5.71 L 8.858,7.372 10.144,6.647 C 8.844,5.083 9.058,5.111 8.713,4.58 8.073,3.597 8.676,4.371 8.101,4.109 L 6.279,3.07 9.364,-0.104 c 1.091,0.711 1.663,0.811 1.836,2.252 L 9.853,0.838 8.403,2.645 c 1.408,1.092 1.51,1.209 2.566,-0.282 l -0.016,0.99 c 0.026,0.28 0.122,0.772 0.198,1.118 0.116,0.522 -0.239,0.651 1.083,1.845 -0.41,0.713 -0.205,0.527 -0.256,0.811 -0.139,0.764 0.021,0.327 -0.075,0.886 l -0.581,1.659 4.998,2.661 c -1.61,0.071 -2.627,-0.811 -3.955,-1.635 -1.126,1.307 -0.764,1.132 -0.927,2.397 -0.592,-1.074 -1.025,-1.994 -1.962,-2.474 -1.83,-0.934 -1.433,0.475 -2.305,1.912 l 2.716,1.01 c -0.761,0.245 -3.03,0.183 -1.708,4.061 L 6.26,17.424 4.719,16.869 C 2.932,20.204 3,19.554 0.215,17.105 0.199,15.305 1.029,16.669 1.716,13.695 2.54,10.126 2.453,12.37 3.431,9.993 Z"
           id="path194"
           style="fill:none;stroke:#ca0109;stroke-width:0.113;stroke-linecap:butt;stroke-linejoin:miter;stroke-miterlimit:2.41400003;stroke-opacity:1;stroke-dasharray:none" /></g><g
         transform="translate(485.54639,375.63985)"
         id="g196"><path
           d="m 0,0 -0.659,-0.229 -0.872,-0.743 c 1.188,-0.973 2.129,-1.177 3.635,-1.29 L 0,0 z m 26.908,-20.983 c 1.024,-0.292 1.937,-0.349 2.75,-0.115 l 0.915,-1.142 -1.726,-1.242 c -0.866,1.127 -1.901,1.836 -2.976,2.67 1.346,-0.822 0.144,-0.217 1.037,-0.171 m 10.473,7.259 -2.654,-2.65 c -0.703,1.091 -0.383,0.899 -1.297,2.738 l 4.008,0.954 c 0.176,-0.78 0.25,-0.212 -0.057,-1.042 m -2.579,-5.008 c 1.601,-0.454 1.418,0.443 2.662,-0.453 -1.599,-1.889 -2.339,-0.789 -3.63,-1.729 l -1.092,0.114 c 0.154,0.519 0.254,0.577 0.932,1.265 0.749,0.761 0.244,0.551 1.128,0.803 m -16.103,-8.814 0.724,0.662 c 0.347,-0.007 0.597,-0.02 1.024,0.012 0.279,-0.946 0.41,-0.011 -0.201,-1.198 -0.178,-0.345 -0.25,-0.34 -0.392,-0.684 -0.366,-0.884 -0.104,-0.203 -0.172,-0.848 l 1.463,1.112 c 1.055,-2.185 -0.467,-1.703 1.89,-4.302 0.404,0.741 0.419,1.051 0.966,1.793 l 1.176,-1.422 -1.34,2.194 c 0.703,0.276 0.224,0.255 0.876,0.181 1.036,-0.814 2.082,-1.102 2.634,0.342 l 0.067,0.764 c 0.083,-0.035 0.146,-0.035 0.243,-0.112 0.546,-0.43 1.036,-0.052 1.51,0.239 -0.309,-0.537 -0.043,0.005 0.252,-0.696 1.162,1.175 1.591,0.182 2.934,0.193 -0.44,2.519 0.399,0.537 -1.024,3.842 l 1.633,1.517 c 1.11,-1.201 0.913,-1.625 2.319,-2.847 0.527,1.529 0.053,0.12 -0.142,0.669 -0.405,1.137 -0.401,-0.391 -0.294,1.014 l 0.67,-0.192 c -1.517,2.035 0.068,0.007 -0.59,1.756 -0.424,1.124 -0.412,0.145 -0.651,1.121 l -0.026,0.698 c 0.779,-0.366 0.719,-0.175 1.64,-0.523 1.179,1.333 0.334,0.847 3.116,2.485 1.33,0.784 2.097,2.147 3.497,3.393 -1.512,0.892 0.158,0.909 -2.501,0.637 -1.016,-0.104 -2.021,-0.562 -3.041,-0.68 -0.071,0.253 -0.258,0.779 -0.292,1.001 1.061,1.071 2.486,0.98 5.38,1.803 -2.187,1.816 -1.714,0.884 -3.155,0.176 -1.732,-0.852 -0.492,-0.497 -1.511,-0.278 l 1.672,1.807 c -0.963,1.268 -1.329,1.428 -2.4,1.884 -0.06,0.025 -0.156,0.053 -0.213,0.079 -1.615,0.743 0.02,1.446 -1.742,0.467 l 0.184,0.005 c -0.173,-1.443 -0.744,-1.542 -1.835,-2.254 l -3.085,3.175 1.821,1.039 c 0.574,0.262 -0.027,-0.512 0.613,0.471 0.344,0.53 0.13,0.502 1.43,2.067 l -1.285,0.724 -2.022,-1.661 c -1.417,-2.55 -1.407,-0.887 -1.968,-3.355 l -1.471,0.647 -0.029,-0.913 c 0.967,0.406 0.176,0.296 1.044,-0.179 1.238,-0.675 0.115,-0.919 2.281,-1.387 2.672,-0.58 1.98,-1.544 3.348,-1.08 l -0.359,-0.904 c -0.036,-0.081 -0.3,-0.521 -0.354,-0.612 l -1.429,0.209 c 0.013,-0.471 0.13,-1.342 -0.085,-1.745 -0.019,-0.036 -0.075,-0.115 -0.1,-0.147 -0.023,-0.03 -0.094,-0.091 -0.122,-0.117 -1.154,-1.108 -1.733,-1.491 -2.408,-1.254 l -0.557,-0.621 1.528,-1.752 1.432,1.525 c 0.714,-1.241 1.265,-1.336 0.322,-2.359 -1.48,-1.602 -1.963,-0.098 -1.966,-0.096 l -2.247,-0.644 c -0.004,0.095 -0.077,0.307 -0.016,0.281 0.06,-0.023 -0.013,0.21 -0.01,0.272 l 0.107,0.996 c -0.081,0.195 -0.156,0.685 -0.187,0.747 -0.29,0.569 0.181,0.064 -0.461,0.471 -0.501,0.317 -0.906,0.575 -1.639,0.527 l -1.08,-0.622 -1.284,-0.817 -0.089,-0.228 c 0.296,-0.624 0.285,-0.801 -0.081,-2.099 l -0.217,-0.621 -1.229,0.77 c 0.413,-1.93 0.023,-1.346 0.553,-2.396 l -0.76,-0.825 -0.286,1.257 c -2.346,-1.329 -1.036,-1.1 -2.697,-2.239 l -0.032,-0.917 c -0.61,0.063 -0.393,-0.088 -0.856,0.441 -1.049,-0.839 0.449,0.062 -2.749,-0.388 l -1.966,-0.21 c -0.098,0.067 -0.175,0.012 -0.261,-0.002 l 0.357,-0.97 c -0.18,-0.886 0.212,-0.139 -0.667,-0.927 -2.034,-1.823 -2.1,-1.55 -2.918,-0.721 l -1.144,3.46 -7.345,0.939 1.275,2.11 c -1.434,1.868 -1.083,1.667 -3.075,3.572 -0.803,0.522 -0.894,0.434 -1.766,1.095 -0.681,0.315 0.76,0.366 -0.218,-0.083 l -1.349,0.286 -1.946,-3.28 0.671,-1.232 c -0.858,-1.031 -1.223,0.155 -0.94,-1.41 l 1.26,0.096 0.3,-1.416 1.831,-0.553 c -0.024,-0.039 -0.137,-0.032 -0.114,-0.073 0.469,-0.859 -0.176,-0.125 -0.186,-0.145 -0.074,-0.146 -0.508,0.243 0.085,-0.348 l 1.762,-1.478 -0.065,-1.1 c 1.249,0.593 -0.429,0.236 2.621,-1.069 1.887,-0.806 0.605,0.313 1.65,-0.941 0.021,-0.026 0.081,-0.104 0.107,-0.131 0.032,-0.034 0.118,-0.112 0.154,-0.145 l 0.418,-0.314 c 1.587,0.586 1.23,1.078 2.693,1.107 0.663,0.013 0.838,0.032 1.145,-0.251 0.351,-0.321 0.142,-0.027 0.494,-1.536 1.68,-0.082 0.937,-0.296 2.425,0.301 -0.308,-0.938 -0.919,0.045 0.859,-1.714 l 0.595,0.223 c 0.771,0.6 0.223,0.11 0.776,0.769 1.785,2.034 -0.404,1.213 1.647,3.122 -0.103,-6.297 -0.315,-2.795 -1.343,-6.874 l 0.835,0.728 0.533,-1.183 0.212,0.555 c 1.154,4.021 0.851,1.639 1.889,4.646 l 0.651,-1.454 0.574,0.766 0.014,0.126 c -0.097,0.395 -0.148,0.275 -0.094,0.74 0.126,1.087 -0.205,0.239 0.485,1.158 0.001,0.104 -0.005,0.437 -10e-4,0.625 0.008,0.381 0.017,0.542 0.027,0.883 L 18.699,-27.546 z m 6.753,1.462 c 0.476,-1.431 0.16,-1.091 0.358,-2.437 l -1.068,-0.924 c -0.852,1.153 -2.002,2.528 -2.149,4.051 l 0.205,1.012 1.139,0.899 c 0.912,0.16 0.136,0.358 0.917,-0.227 0.378,-0.284 0.507,-0.503 0.675,-0.98 0.27,-0.763 0.108,-0.844 -0.077,-1.394 M 21.914,1.5 c 0.54,-0.51 0.501,-0.509 1.042,-0.945 l 0.917,-0.585 c -0.017,0.046 0.164,-0.071 0.25,-0.095 L 24.346,3.047 21.914,1.5 Z"
           id="path198"
           style="fill:#f42745;fill-opacity:1;fill-rule:evenodd;stroke:none" /></g><g
         transform="translate(485.54639,375.63985)"
         id="g200"><path
           d="m 0,0 -0.659,-0.229 -0.872,-0.743 c 1.188,-0.973 2.129,-1.177 3.635,-1.29 L 0,0 z m 26.908,-20.983 c 1.024,-0.292 1.937,-0.349 2.75,-0.115 l 0.915,-1.142 -1.726,-1.242 c -0.866,1.127 -1.901,1.836 -2.976,2.67 C 27.217,-21.634 26.015,-21.029 26.908,-20.983 z m 10.473,7.259 -2.654,-2.65 c -0.703,1.091 -0.383,0.899 -1.297,2.738 l 4.008,0.954 C 37.614,-13.462 37.688,-12.894 37.381,-13.724 z m -2.579,-5.008 c 1.601,-0.454 1.418,0.443 2.662,-0.453 -1.599,-1.889 -2.339,-0.789 -3.63,-1.729 l -1.092,0.114 c 0.154,0.519 0.254,0.577 0.932,1.265 C 34.423,-18.774 33.918,-18.984 34.802,-18.732 z m -16.103,-8.814 0.724,0.662 c 0.347,-0.007 0.597,-0.02 1.024,0.012 0.279,-0.946 0.41,-0.011 -0.201,-1.198 -0.178,-0.345 -0.25,-0.34 -0.392,-0.684 -0.366,-0.884 -0.104,-0.203 -0.172,-0.848 l 1.463,1.112 c 1.055,-2.185 -0.467,-1.703 1.89,-4.302 0.404,0.741 0.419,1.051 0.966,1.793 l 1.176,-1.422 -1.34,2.194 c 0.703,0.276 0.224,0.255 0.876,0.181 1.036,-0.814 2.082,-1.102 2.634,0.342 l 0.067,0.764 c 0.083,-0.035 0.146,-0.035 0.243,-0.112 0.546,-0.43 1.036,-0.052 1.51,0.239 -0.309,-0.537 -0.043,0.005 0.252,-0.696 1.162,1.175 1.591,0.182 2.934,0.193 -0.44,2.519 0.399,0.537 -1.024,3.842 l 1.633,1.517 c 1.11,-1.201 0.913,-1.625 2.319,-2.847 0.527,1.529 0.053,0.12 -0.142,0.669 -0.405,1.137 -0.401,-0.391 -0.294,1.014 l 0.67,-0.192 c -1.517,2.035 0.068,0.007 -0.59,1.756 -0.424,1.124 -0.412,0.145 -0.651,1.121 l -0.026,0.698 c 0.779,-0.366 0.719,-0.175 1.64,-0.523 1.179,1.333 0.334,0.847 3.116,2.485 1.33,0.784 2.097,2.147 3.497,3.393 -1.512,0.892 0.158,0.909 -2.501,0.637 -1.016,-0.104 -2.021,-0.562 -3.041,-0.68 -0.071,0.253 -0.258,0.779 -0.292,1.001 1.061,1.071 2.486,0.98 5.38,1.803 -2.187,1.816 -1.714,0.884 -3.155,0.176 -1.732,-0.852 -0.492,-0.497 -1.511,-0.278 l 1.672,1.807 c -0.963,1.268 -1.329,1.428 -2.4,1.884 -0.06,0.025 -0.156,0.053 -0.213,0.079 -1.615,0.743 0.02,1.446 -1.742,0.467 l 0.184,0.005 c -0.173,-1.443 -0.744,-1.542 -1.835,-2.254 l -3.085,3.175 1.821,1.039 c 0.574,0.262 -0.027,-0.512 0.613,0.471 0.344,0.53 0.13,0.502 1.43,2.067 l -1.285,0.724 -2.022,-1.661 c -1.417,-2.55 -1.407,-0.887 -1.968,-3.355 l -1.471,0.647 -0.029,-0.913 c 0.967,0.406 0.176,0.296 1.044,-0.179 1.238,-0.675 0.115,-0.919 2.281,-1.387 2.672,-0.58 1.98,-1.544 3.348,-1.08 l -0.359,-0.904 c -0.036,-0.081 -0.3,-0.521 -0.354,-0.612 l -1.429,0.209 c 0.013,-0.471 0.13,-1.342 -0.085,-1.745 -0.019,-0.036 -0.075,-0.115 -0.1,-0.147 -0.023,-0.03 -0.094,-0.091 -0.122,-0.117 -1.154,-1.108 -1.733,-1.491 -2.408,-1.254 l -0.557,-0.621 1.528,-1.752 1.432,1.525 c 0.714,-1.241 1.265,-1.336 0.322,-2.359 -1.48,-1.602 -1.963,-0.098 -1.966,-0.096 l -2.247,-0.644 c -0.004,0.095 -0.077,0.307 -0.016,0.281 0.06,-0.023 -0.013,0.21 -0.01,0.272 l 0.107,0.996 c -0.081,0.195 -0.156,0.685 -0.187,0.747 -0.29,0.569 0.181,0.064 -0.461,0.471 -0.501,0.317 -0.906,0.575 -1.639,0.527 l -1.08,-0.622 -1.284,-0.817 -0.089,-0.228 c 0.296,-0.624 0.285,-0.801 -0.081,-2.099 l -0.217,-0.621 -1.229,0.77 c 0.413,-1.93 0.023,-1.346 0.553,-2.396 l -0.76,-0.825 -0.286,1.257 c -2.346,-1.329 -1.036,-1.1 -2.697,-2.239 l -0.032,-0.917 c -0.61,0.063 -0.393,-0.088 -0.856,0.441 -1.049,-0.839 0.449,0.062 -2.749,-0.388 l -1.966,-0.21 c -0.098,0.067 -0.175,0.012 -0.261,-0.002 l 0.357,-0.97 c -0.18,-0.886 0.212,-0.139 -0.667,-0.927 -2.034,-1.823 -2.1,-1.55 -2.918,-0.721 l -1.144,3.46 -7.345,0.939 1.275,2.11 c -1.434,1.868 -1.083,1.667 -3.075,3.572 -0.803,0.522 -0.894,0.434 -1.766,1.095 -0.681,0.315 0.76,0.366 -0.218,-0.083 l -1.349,0.286 -1.946,-3.28 0.671,-1.232 c -0.858,-1.031 -1.223,0.155 -0.94,-1.41 l 1.26,0.096 0.3,-1.416 1.831,-0.553 c -0.024,-0.039 -0.137,-0.032 -0.114,-0.073 0.469,-0.859 -0.176,-0.125 -0.186,-0.145 -0.074,-0.146 -0.508,0.243 0.085,-0.348 l 1.762,-1.478 -0.065,-1.1 c 1.249,0.593 -0.429,0.236 2.621,-1.069 1.887,-0.806 0.605,0.313 1.65,-0.941 0.021,-0.026 0.081,-0.104 0.107,-0.131 0.032,-0.034 0.118,-0.112 0.154,-0.145 l 0.418,-0.314 c 1.587,0.586 1.23,1.078 2.693,1.107 0.663,0.013 0.838,0.032 1.145,-0.251 0.351,-0.321 0.142,-0.027 0.494,-1.536 1.68,-0.082 0.937,-0.296 2.425,0.301 -0.308,-0.938 -0.919,0.045 0.859,-1.714 l 0.595,0.223 c 0.771,0.6 0.223,0.11 0.776,0.769 1.785,2.034 -0.404,1.213 1.647,3.122 -0.103,-6.297 -0.315,-2.795 -1.343,-6.874 l 0.835,0.728 0.533,-1.183 0.212,0.555 c 1.154,4.021 0.851,1.639 1.889,4.646 l 0.651,-1.454 0.574,0.766 0.014,0.126 c -0.097,0.395 -0.148,0.275 -0.094,0.74 0.126,1.087 -0.205,0.239 0.485,1.158 0.001,0.104 -0.005,0.437 -10e-4,0.625 0.008,0.381 0.017,0.542 0.027,0.883 L 18.699,-27.546 z m 6.753,1.462 c 0.476,-1.431 0.16,-1.091 0.358,-2.437 l -1.068,-0.924 c -0.852,1.153 -2.002,2.528 -2.149,4.051 l 0.205,1.012 1.139,0.899 c 0.912,0.16 0.136,0.358 0.917,-0.227 0.378,-0.284 0.507,-0.503 0.675,-0.98 C 25.799,-25.453 25.637,-25.534 25.452,-26.084 Z M 21.914,1.5 c 0.54,-0.51 0.501,-0.509 1.042,-0.945 l 0.917,-0.585 c -0.017,0.046 0.164,-0.071 0.25,-0.095 L 24.346,3.047 21.914,1.5 Z"
           id="path202"
           style="fill:none;stroke:#f42745;stroke-width:0.113;stroke-linecap:butt;stroke-linejoin:miter;stroke-miterlimit:2.41400003;stroke-opacity:1;stroke-dasharray:none" /></g><g
         transform="translate(511.41749,354.82825)"
         id="g204"><path
           d="m 0,0 c 1.075,-0.835 2.11,-1.544 2.976,-2.671 l 1.726,1.242 -0.915,1.143 C 2.974,-0.521 2.061,-0.464 1.037,-0.172 0.144,-0.218 1.347,-0.822 0,0 m -3.278,-4.582 c 0.147,-1.523 1.298,-2.898 2.149,-4.052 l 1.067,0.925 c -0.196,1.346 0.119,1.006 -0.357,2.437 0.186,0.549 0.347,0.631 0.078,1.393 -0.169,0.478 -0.297,0.696 -0.677,0.981 -0.78,0.585 -0.004,0.386 -0.917,0.226 L -3.072,-3.57 -3.278,-4.582 z m -9.036,-10.999 c -0.364,-0.58 -0.369,-1.094 -0.261,-1.789 0.159,-1.022 0.266,-0.635 0.176,-1.736 0.505,-0.711 1.086,0.377 1.499,0.862 0.754,0.733 0.706,1.89 0.938,2.766 -0.309,1.32 -0.284,0.666 0.092,1.958 0.22,0.754 0.082,0.13 0.197,0.893 0.111,0.731 -0.174,0.113 0.11,0.793 l -0.651,1.453 c -1.038,-3.007 -0.734,-0.625 -1.89,-4.645 L -12.314,-15.581 z m 18.795,7.076 1.502,-0.399 c 0.066,-0.02 0.185,-0.051 0.276,-0.083 L 8.145,-9.022 c 1.367,0.208 1.369,0.415 2.661,-0.195 l 0.779,0.278 -2.175,2.947 C 8.004,-4.771 8.201,-4.347 7.091,-3.146 L 5.458,-4.662 c 1.423,-3.306 0.584,-1.323 1.023,-3.843 m 3.163,4.003 1.166,-0.215 1.339,-0.347 c 0.058,-0.013 0.173,-0.04 0.258,-0.065 l 0.665,1.338 0.285,0.336 c -0.818,0.998 -2.213,1.677 -3.339,2.006 -0.922,0.347 -0.861,0.156 -1.641,0.522 l 0.027,-0.697 c 0.238,-0.977 0.226,0.003 0.65,-1.121 0.659,-1.749 -0.926,0.278 0.59,-1.757 m -29.497,-17.454 -0.352,-0.166 -0.41,-1.194 c 4.284,1.61 2.984,3.782 5.757,6.853 0.103,0.114 0.528,0.088 0.635,1.077 l 0.54,0.259 c 1.029,4.079 1.241,0.577 1.343,6.874 -2.051,-1.908 0.139,-1.088 -1.647,-3.121 -0.553,-0.659 -0.005,-0.17 -0.776,-0.77 l -0.595,-0.222 c -1.778,1.759 -1.167,0.775 -0.859,1.714 -1.488,-0.597 -0.744,-0.383 -2.425,-0.301 -0.352,1.51 -0.143,1.215 -0.494,1.536 -0.307,0.282 -0.481,0.264 -1.145,0.251 -1.463,-0.029 -1.105,-0.522 -2.693,-1.107 l -0.419,0.314 c -0.035,0.032 -0.121,0.11 -0.153,0.145 -0.026,0.027 -0.086,0.105 -0.107,0.131 -1.045,1.253 0.238,0.134 -1.649,0.941 -3.052,1.304 -1.373,1.662 -2.621,1.068 -1.054,-0.742 -1.855,-1.737 -2.264,-2.693 -0.567,-1.326 -0.393,-1.866 0.445,-2.541 l 3.735,2.123 -2.124,-2.95 2.232,0.273 c 0.744,0.194 1.104,0.317 1.597,0.07 -3.222,-3.126 -1.296,-1.494 -2.354,-2.943 l 1.53,-0.225 c 0.99,0.747 1.563,0.566 2.781,1.532 l 2.753,2.024 c 0.401,-1.091 -0.31,-0.743 -3.627,-3.51 0.165,-2.09 1.1,0.492 -1.541,-4.34 l 1.017,0.292 4.217,3.793 c 0.455,-1.511 0.245,-1.331 0.219,-2.547 -0.031,-1.455 0.512,-1.259 -0.546,-2.64 m 12.902,10.329 c 0.012,-0.037 0.07,-0.155 0.226,-0.563 0.029,-0.104 0.161,-0.474 0.189,-0.547 0.024,-0.066 0.157,-0.284 0.116,-0.259 -0.041,0.022 0.085,-0.166 0.128,-0.248 0.049,-0.095 0.124,-0.32 0.143,-0.378 0.015,-0.048 0.105,-0.28 0.06,-0.252 -0.049,0.032 0.034,-0.189 0.056,-0.282 l -0.007,-0.515 c 0.17,-0.879 0.068,-0.307 -0.042,-1.229 -0.007,-0.062 -0.036,-0.159 -0.042,-0.216 -0.045,-0.432 -0.04,-0.32 -0.003,-0.605 -0.068,-0.765 -0.82,0.325 0.017,-0.496 l 0.482,-0.274 1.599,1.716 0.992,1.243 c 0.481,1.096 0.748,1.625 0.201,2.552 -2.356,2.598 -0.835,2.117 -1.891,4.301 L -6.189,-8.79 c 0.068,0.644 -0.194,-0.036 0.172,0.848 0.143,0.343 0.214,0.338 0.392,0.683 0.611,1.188 0.479,0.252 0.202,1.198 -0.429,-0.032 -0.679,-0.018 -1.025,-0.011 l -0.724,-0.662 -1.386,-0.802 c -0.01,-0.342 -0.019,-0.501 -0.026,-0.884 -0.004,-0.187 0.002,-0.52 0,-0.625 -0.69,-0.919 -0.359,-0.07 -0.485,-1.157 -0.054,-0.465 -0.003,-0.346 0.095,-0.74 l -0.014,-0.126 c 0,-0.035 0.352,-0.287 0.405,-0.548 0.025,-0.127 0.166,-0.48 0.238,-0.644 0.102,0.243 0.246,0.312 0.448,0.481 0.003,-0.007 0.235,-0.257 0.281,-0.313 0.19,0.16 0.402,0.422 0.631,0.452 L -6.951,-11.627 z m 9.097,-3.134 2.618,-1.188 c 0.731,0.567 0.739,0.788 1.081,1.393 -0.193,0.659 -0.211,0.618 -0.347,0.933 0.186,0.78 0.292,-0.263 0.075,1.247 -0.041,0.292 -0.309,0.973 -0.383,1.108 -0.49,0.909 -1.38,1.991 -1.642,2.571 -0.294,0.701 -0.561,0.159 -0.252,0.696 -0.474,-0.291 -0.964,-0.67 -1.51,-0.239 -0.097,0.077 -0.16,0.077 -0.242,0.111 L 1.476,-8.893 c -0.552,-1.444 -1.598,-1.156 -2.634,-0.341 -0.653,0.074 -0.173,0.094 -0.876,-0.181 l 1.34,-2.194 0.668,-1.266 L 2.146,-14.761 z m 7.103,37.036 0.119,0.718 c -0.082,0.016 -0.26,0.103 -0.247,0.05 0.013,-0.055 -0.196,0.042 -0.253,0.059 L 8.057,23.356 8.182,23.232 7.699,22.723 4.982,21.714 c 0.872,-1.439 0.475,-2.848 2.305,-1.912 0.938,0.479 1.37,1.399 1.962,2.473 M 11.511,7.089 c 0.305,0.829 0.232,0.261 0.056,1.041 L 7.56,7.176 C 8.474,5.337 8.154,5.528 8.855,4.438 L 11.511,7.089 Z M 1.242,19.173 1.053,19.018 l -0.065,0 0.657,-1.67 c 1.201,0.107 1.142,0.304 2.719,1.5 -1.468,1.44 -1.426,1.576 -3.122,0.325 M 1.589,1.655 1.481,0.659 C 1.479,0.598 1.552,0.364 1.492,0.388 1.431,0.413 1.504,0.201 1.509,0.107 L 3.756,0.751 C 3.758,0.749 4.241,-0.755 5.721,0.847 6.665,1.869 6.113,1.965 5.398,3.205 L 3.968,1.681 3.915,1.649 2.616,3.369 C 1.42,2.121 2.088,2.983 1.589,1.655 m -5.6,12.616 1.062,-1.383 c 0.2,0.216 0.838,0.734 0.902,1.041 0.202,0.963 0.169,0.214 -0.46,1.097 L -3.39,15.149 -4.011,14.271 z m 16.995,1.914 c 0.731,0.818 1.516,2.038 1.883,2.864 0.522,1.172 0.356,1.552 -0.323,2.665 L 14.132,21.513 9.134,18.852 9.715,17.193 C 9.811,16.634 9.65,17.07 9.789,16.308 9.841,16.022 9.636,16.209 10.046,15.496 8.724,14.303 9.079,14.173 8.963,13.651 8.887,13.305 8.79,12.813 8.765,12.532 L 8.78,11.544 c -1.054,1.491 -1.158,1.373 -2.565,0.28 l 1.449,-1.805 1.348,1.31 -0.185,-0.005 c 1.763,0.98 0.127,0.277 1.742,-0.467 0.057,-0.026 0.154,-0.053 0.214,-0.079 1.07,-0.456 1.436,-0.616 2.4,-1.883 l 1.88,0.912 0.541,0.225 2.447,1.493 0.929,1.344 -1.338,1.583 1.582,1.68 -0.236,0.255 c -0.674,0.491 -1.067,0.378 -1.725,0.059 -1.731,0.65 0.466,-0.012 -0.737,0.128 -1.153,0.134 0.288,-0.22 -1.014,0.082 -1.805,-0.585 -2.285,-1.359 -2.598,-0.926 L 12.984,16.185 Z M -8.543,0.36 c 0.969,-0.951 0.731,-0.981 0.73,-2.272 -0.002,-1.153 0.084,-1.495 -0.055,-2.507 1.661,1.139 0.352,0.909 2.697,2.238 l 0.286,-1.257 0.761,0.826 c -0.531,1.049 -0.141,0.466 -0.554,2.395 l 1.23,-0.769 0.216,0.621 c 0.366,1.298 0.377,1.474 0.081,2.098 L -5.033,1.137 c -0.09,0.052 -0.162,-0.048 -0.244,-0.04 l 0.192,1.137 C -6.547,0.771 -6.392,0.152 -7.385,1.833 -7.406,1.739 -7.412,1.611 -7.426,1.549 -7.438,1.488 -7.456,1.347 -7.473,1.278 -7.875,-0.344 -6.993,1.435 -7.804,0.521 l -1.055,0.601 c -0.2,-0.387 -1.08,0.436 0.316,-0.762"
           id="path206"
           style="fill:#ff3c73;fill-opacity:1;fill-rule:evenodd;stroke:none" /></g><g
         transform="translate(511.41749,354.82825)"
         id="g208"><path
           d="m 0,0 c 1.075,-0.835 2.11,-1.544 2.976,-2.671 l 1.726,1.242 -0.915,1.143 C 2.974,-0.521 2.061,-0.464 1.037,-0.172 0.144,-0.218 1.347,-0.822 0,0 z m -3.278,-4.582 c 0.147,-1.523 1.298,-2.898 2.149,-4.052 l 1.067,0.925 c -0.196,1.346 0.119,1.006 -0.357,2.437 0.186,0.549 0.347,0.631 0.078,1.393 -0.169,0.478 -0.297,0.696 -0.677,0.981 -0.78,0.585 -0.004,0.386 -0.917,0.226 L -3.072,-3.57 -3.278,-4.582 z m -9.036,-10.999 c -0.364,-0.58 -0.369,-1.094 -0.261,-1.789 0.159,-1.022 0.266,-0.635 0.176,-1.736 0.505,-0.711 1.086,0.377 1.499,0.862 0.754,0.733 0.706,1.89 0.938,2.766 -0.309,1.32 -0.284,0.666 0.092,1.958 0.22,0.754 0.082,0.13 0.197,0.893 0.111,0.731 -0.174,0.113 0.11,0.793 l -0.651,1.453 c -1.038,-3.007 -0.734,-0.625 -1.89,-4.645 L -12.314,-15.581 z m 18.795,7.076 1.502,-0.399 c 0.066,-0.02 0.185,-0.051 0.276,-0.083 L 8.145,-9.022 c 1.367,0.208 1.369,0.415 2.661,-0.195 l 0.779,0.278 -2.175,2.947 C 8.004,-4.771 8.201,-4.347 7.091,-3.146 L 5.458,-4.662 C 6.881,-7.968 6.042,-5.985 6.481,-8.505 z m 3.163,4.003 1.166,-0.215 1.339,-0.347 c 0.058,-0.013 0.173,-0.04 0.258,-0.065 l 0.665,1.338 0.285,0.336 c -0.818,0.998 -2.213,1.677 -3.339,2.006 -0.922,0.347 -0.861,0.156 -1.641,0.522 L 8.404,-1.624 C 8.642,-2.601 8.63,-1.621 9.054,-2.745 9.713,-4.494 8.128,-2.467 9.644,-4.502 z m -29.497,-17.454 -0.352,-0.166 -0.41,-1.194 c 4.284,1.61 2.984,3.782 5.757,6.853 0.103,0.114 0.528,0.088 0.635,1.077 l 0.54,0.259 c 1.029,4.079 1.241,0.577 1.343,6.874 -2.051,-1.908 0.139,-1.088 -1.647,-3.121 -0.553,-0.659 -0.005,-0.17 -0.776,-0.77 l -0.595,-0.222 c -1.778,1.759 -1.167,0.775 -0.859,1.714 -1.488,-0.597 -0.744,-0.383 -2.425,-0.301 -0.352,1.51 -0.143,1.215 -0.494,1.536 -0.307,0.282 -0.481,0.264 -1.145,0.251 -1.463,-0.029 -1.105,-0.522 -2.693,-1.107 l -0.419,0.314 c -0.035,0.032 -0.121,0.11 -0.153,0.145 -0.026,0.027 -0.086,0.105 -0.107,0.131 -1.045,1.253 0.238,0.134 -1.649,0.941 -3.052,1.304 -1.373,1.662 -2.621,1.068 -1.054,-0.742 -1.855,-1.737 -2.264,-2.693 -0.567,-1.326 -0.393,-1.866 0.445,-2.541 l 3.735,2.123 -2.124,-2.95 2.232,0.273 c 0.744,0.194 1.104,0.317 1.597,0.07 -3.222,-3.126 -1.296,-1.494 -2.354,-2.943 l 1.53,-0.225 c 0.99,0.747 1.563,0.566 2.781,1.532 l 2.753,2.024 c 0.401,-1.091 -0.31,-0.743 -3.627,-3.51 0.165,-2.09 1.1,0.492 -1.541,-4.34 l 1.017,0.292 4.217,3.793 c 0.455,-1.511 0.245,-1.331 0.219,-2.547 C -19.338,-20.771 -18.795,-20.575 -19.853,-21.956 z m 12.902,10.329 c 0.012,-0.037 0.07,-0.155 0.226,-0.563 0.029,-0.104 0.161,-0.474 0.189,-0.547 0.024,-0.066 0.157,-0.284 0.116,-0.259 -0.041,0.022 0.085,-0.166 0.128,-0.248 0.049,-0.095 0.124,-0.32 0.143,-0.378 0.015,-0.048 0.105,-0.28 0.06,-0.252 -0.049,0.032 0.034,-0.189 0.056,-0.282 l -0.007,-0.515 c 0.17,-0.879 0.068,-0.307 -0.042,-1.229 -0.007,-0.062 -0.036,-0.159 -0.042,-0.216 -0.045,-0.432 -0.04,-0.32 -0.003,-0.605 -0.068,-0.765 -0.82,0.325 0.017,-0.496 l 0.482,-0.274 1.599,1.716 0.992,1.243 c 0.481,1.096 0.748,1.625 0.201,2.552 -2.356,2.598 -0.835,2.117 -1.891,4.301 L -6.189,-8.79 c 0.068,0.644 -0.194,-0.036 0.172,0.848 0.143,0.343 0.214,0.338 0.392,0.683 0.611,1.188 0.479,0.252 0.202,1.198 -0.429,-0.032 -0.679,-0.018 -1.025,-0.011 l -0.724,-0.662 -1.386,-0.802 c -0.01,-0.342 -0.019,-0.501 -0.026,-0.884 -0.004,-0.187 0.002,-0.52 0,-0.625 -0.69,-0.919 -0.359,-0.07 -0.485,-1.157 -0.054,-0.465 -0.003,-0.346 0.095,-0.74 l -0.014,-0.126 c 0,-0.035 0.352,-0.287 0.405,-0.548 0.025,-0.127 0.166,-0.48 0.238,-0.644 0.102,0.243 0.246,0.312 0.448,0.481 0.003,-0.007 0.235,-0.257 0.281,-0.313 0.19,0.16 0.402,0.422 0.631,0.452 L -6.951,-11.627 z m 9.097,-3.134 2.618,-1.188 c 0.731,0.567 0.739,0.788 1.081,1.393 -0.193,0.659 -0.211,0.618 -0.347,0.933 0.186,0.78 0.292,-0.263 0.075,1.247 -0.041,0.292 -0.309,0.973 -0.383,1.108 -0.49,0.909 -1.38,1.991 -1.642,2.571 -0.294,0.701 -0.561,0.159 -0.252,0.696 -0.474,-0.291 -0.964,-0.67 -1.51,-0.239 -0.097,0.077 -0.16,0.077 -0.242,0.111 L 1.476,-8.893 c -0.552,-1.444 -1.598,-1.156 -2.634,-0.341 -0.653,0.074 -0.173,0.094 -0.876,-0.181 l 1.34,-2.194 0.668,-1.266 L 2.146,-14.761 z m 7.103,37.036 0.119,0.718 c -0.082,0.016 -0.26,0.103 -0.247,0.05 0.013,-0.055 -0.196,0.042 -0.253,0.059 L 8.057,23.356 8.182,23.232 7.699,22.723 4.982,21.714 C 5.854,20.275 5.457,18.866 7.287,19.802 8.225,20.281 8.657,21.201 9.249,22.275 Z M 11.511,7.089 c 0.305,0.829 0.232,0.261 0.056,1.041 L 7.56,7.176 C 8.474,5.337 8.154,5.528 8.855,4.438 L 11.511,7.089 Z M 1.242,19.173 1.053,19.018 l -0.065,0 0.657,-1.67 c 1.201,0.107 1.142,0.304 2.719,1.5 C 2.896,20.288 2.938,20.424 1.242,19.173 Z M 1.589,1.655 1.481,0.659 C 1.479,0.598 1.552,0.364 1.492,0.388 1.431,0.413 1.504,0.201 1.509,0.107 L 3.756,0.751 C 3.758,0.749 4.241,-0.755 5.721,0.847 6.665,1.869 6.113,1.965 5.398,3.205 L 3.968,1.681 3.915,1.649 2.616,3.369 C 1.42,2.121 2.088,2.983 1.589,1.655 z m -5.6,12.616 1.062,-1.383 c 0.2,0.216 0.838,0.734 0.902,1.041 0.202,0.963 0.169,0.214 -0.46,1.097 L -3.39,15.149 -4.011,14.271 z m 16.995,1.914 c 0.731,0.818 1.516,2.038 1.883,2.864 0.522,1.172 0.356,1.552 -0.323,2.665 L 14.132,21.513 9.134,18.852 9.715,17.193 C 9.811,16.634 9.65,17.07 9.789,16.308 9.841,16.022 9.636,16.209 10.046,15.496 8.724,14.303 9.079,14.173 8.963,13.651 8.887,13.305 8.79,12.813 8.765,12.532 L 8.78,11.544 c -1.054,1.491 -1.158,1.373 -2.565,0.28 l 1.449,-1.805 1.348,1.31 -0.185,-0.005 c 1.763,0.98 0.127,0.277 1.742,-0.467 0.057,-0.026 0.154,-0.053 0.214,-0.079 1.07,-0.456 1.436,-0.616 2.4,-1.883 l 1.88,0.912 0.541,0.225 2.447,1.493 0.929,1.344 -1.338,1.583 1.582,1.68 -0.236,0.255 c -0.674,0.491 -1.067,0.378 -1.725,0.059 -1.731,0.65 0.466,-0.012 -0.737,0.128 -1.153,0.134 0.288,-0.22 -1.014,0.082 -1.805,-0.585 -2.285,-1.359 -2.598,-0.926 L 12.984,16.185 Z M -8.543,0.36 c 0.969,-0.951 0.731,-0.981 0.73,-2.272 -0.002,-1.153 0.084,-1.495 -0.055,-2.507 1.661,1.139 0.352,0.909 2.697,2.238 l 0.286,-1.257 0.761,0.826 c -0.531,1.049 -0.141,0.466 -0.554,2.395 l 1.23,-0.769 0.216,0.621 c 0.366,1.298 0.377,1.474 0.081,2.098 L -5.033,1.137 c -0.09,0.052 -0.162,-0.048 -0.244,-0.04 l 0.192,1.137 C -6.547,0.771 -6.392,0.152 -7.385,1.833 -7.406,1.739 -7.412,1.611 -7.426,1.549 -7.438,1.488 -7.456,1.347 -7.473,1.278 -7.875,-0.344 -6.993,1.435 -7.804,0.521 L -8.859,1.122 C -9.059,0.735 -9.939,1.558 -8.543,0.36 Z"
           id="path210"
           style="fill:none;stroke:#ff3c73;stroke-width:0.113;stroke-linecap:butt;stroke-linejoin:miter;stroke-miterlimit:2.41400003;stroke-opacity:1;stroke-dasharray:none" /></g><g
         transform="translate(502.55809,355.95035)"
         id="g212"><path
           d="m 0,0 1.056,-0.6 c 0.81,0.913 -0.073,-0.866 0.33,0.756 0.016,0.069 0.035,0.21 0.048,0.271 0.013,0.062 0.019,0.19 0.041,0.284 0.279,0.763 0.113,1.13 -0.234,1.894 L -0.056,3.247 C -0.886,2.849 -0.508,3.232 -0.227,2.574 -0.046,0.323 0.401,1.137 0,0 M 8.664,8.644 C 7.479,9.034 7.622,9.131 6.671,8.059 L 8.664,6.51 C 9.78,7.694 9.131,7.13 9.86,9.002 9.772,8.986 9.58,9.036 9.597,8.955 L 8.664,8.644 z m 2.634,-6.333 0.557,0.621 C 12.179,3.998 11.394,5.271 10.911,5.689 10.114,6.381 10.826,6.114 9.855,6.078 9.498,5.537 9.408,5.355 9.243,4.702 9.203,4.545 9.137,4.188 9.104,4.021 L 8.954,3.229 11.298,2.311 Z M 0.104,-6.017 C 0.566,-6.546 0.35,-6.396 0.959,-6.458 l 0.032,0.917 c 0.139,1.012 0.053,1.353 0.055,2.507 10e-4,1.291 0.239,1.322 -0.73,2.272 -0.849,0.124 -0.211,0.118 -1.128,-0.102 -0.222,-1.67 -0.336,-1.51 0.39,-3.54 0.087,-0.243 0.446,-0.766 0.526,-1.613 m 1.02,24.814 0.41,-0.781 C 2.381,17.031 1.552,17.321 2.754,17.113 3.335,17.012 3.057,17.08 3.923,17.39 3.657,20.178 2.4,21.113 1.124,18.797 M -8.062,-8.124 c 3.372,3.503 3.882,3.279 3.462,5.101 -0.738,3.198 -0.366,1.653 0.504,3.239 L -5.514,1.555 C -9.76,-1.422 -7.3,-0.093 -8.265,-2.68 c 0.489,0.319 0.368,0.547 1.185,-0.013 0.029,-0.021 0.157,-0.207 0.132,-0.169 -0.028,0.039 0.099,-0.119 0.123,-0.192 L -8.643,-3.79 c 2.517,-1.06 1.549,-0.113 2.689,-0.68 -0.931,-1.687 -2.071,-2.96 -2.108,-3.654"
           id="path214"
           style="fill:#a40007;fill-opacity:1;fill-rule:evenodd;stroke:none" /></g><g
         transform="translate(502.55809,355.95035)"
         id="g216"><path
           d="m 0,0 1.056,-0.6 c 0.81,0.913 -0.073,-0.866 0.33,0.756 0.016,0.069 0.035,0.21 0.048,0.271 0.013,0.062 0.019,0.19 0.041,0.284 0.279,0.763 0.113,1.13 -0.234,1.894 L -0.056,3.247 C -0.886,2.849 -0.508,3.232 -0.227,2.574 -0.046,0.323 0.401,1.137 0,0 Z M 8.664,8.644 C 7.479,9.034 7.622,9.131 6.671,8.059 L 8.664,6.51 C 9.78,7.694 9.131,7.13 9.86,9.002 9.772,8.986 9.58,9.036 9.597,8.955 L 8.664,8.644 z m 2.634,-6.333 0.557,0.621 C 12.179,3.998 11.394,5.271 10.911,5.689 10.114,6.381 10.826,6.114 9.855,6.078 9.498,5.537 9.408,5.355 9.243,4.702 9.203,4.545 9.137,4.188 9.104,4.021 L 8.954,3.229 11.298,2.311 Z M 0.104,-6.017 C 0.566,-6.546 0.35,-6.396 0.959,-6.458 l 0.032,0.917 c 0.139,1.012 0.053,1.353 0.055,2.507 10e-4,1.291 0.239,1.322 -0.73,2.272 -0.849,0.124 -0.211,0.118 -1.128,-0.102 -0.222,-1.67 -0.336,-1.51 0.39,-3.54 C -0.335,-4.647 0.024,-5.17 0.104,-6.017 z m 1.02,24.814 0.41,-0.781 C 2.381,17.031 1.552,17.321 2.754,17.113 3.335,17.012 3.057,17.08 3.923,17.39 3.657,20.178 2.4,21.113 1.124,18.797 Z M -8.062,-8.124 c 3.372,3.503 3.882,3.279 3.462,5.101 -0.738,3.198 -0.366,1.653 0.504,3.239 L -5.514,1.555 C -9.76,-1.422 -7.3,-0.093 -8.265,-2.68 c 0.489,0.319 0.368,0.547 1.185,-0.013 0.029,-0.021 0.157,-0.207 0.132,-0.169 -0.028,0.039 0.099,-0.119 0.123,-0.192 L -8.643,-3.79 c 2.517,-1.06 1.549,-0.113 2.689,-0.68 C -6.885,-6.157 -8.025,-7.43 -8.062,-8.124 Z"
           id="path218"
           style="fill:none;stroke:#a40007;stroke-width:0.113;stroke-linecap:butt;stroke-linejoin:miter;stroke-miterlimit:2.41400003;stroke-opacity:1;stroke-dasharray:none" /></g></g></g></svg>